<?xml version="1.0" encoding="UTF-8"?>
<!DOCTYPE svg PUBLIC "-//W3C//DTD SVG 1.1//EN" "http://www.w3.org/Graphics/SVG/1.1/DTD/svg11.dtd">
<!-- Creator: CorelDRAW X8 -->
<svg xmlns="http://www.w3.org/2000/svg" xml:space="preserve" width="364.641mm" height="161.753mm" version="1.1" style="shape-rendering:geometricPrecision; text-rendering:geometricPrecision; image-rendering:optimizeQuality; fill-rule:evenodd; clip-rule:evenodd"
viewBox="-1000 -1000 7539 3901"
 xmlns:xlink="http://www.w3.org/1999/xlink">
 <defs>
  <style type="text/css">
   <![CDATA[
    .fil1 {fill:#264263;fill-rule:nonzero}
    .fil0 {fill:#FF4F19;fill-rule:nonzero}
   ]]>
  </style>
 </defs>
 <g id="Layer_x0020_1">
  <metadata id="CorelCorpID_0Corel-Layer"/>
  <g id="_2360332741296">
   <path class="fil0" d="M6539 0c0,610 -534,960 -1111,960l-141 0 131 -53c382,-153 720,-479 746,-907l375 0z"/>
   <path class="fil1" d="M1061 1104l0 1098c0,28 3,56 9,83 5,27 14,54 24,79 11,26 24,51 40,74 15,23 33,44 53,64 41,41 86,72 132,93 46,21 160,32 209,32 470,0 321,-696 553,-1017 103,-142 264,-242 538,-242 277,0 438,100 540,243 219,310 86,1019 598,1017 62,0 169,-11 230,-32 62,-20 122,-49 178,-83 -13,-16 -26,-31 -37,-47 -16,-21 -30,-42 -44,-62 -15,-24 -29,-48 -42,-72 -14,-25 -26,-50 -37,-75 -12,-24 -22,-49 -31,-74 -9,-26 -17,-51 -25,-76 -7,-26 -13,-52 -18,-77 -5,-25 -9,-50 -11,-75 -3,-26 -5,-52 -5,-77 0,-25 1,-50 3,-74 2,-25 5,-48 10,-71 5,-23 11,-45 18,-66 16,-47 37,-89 64,-127 27,-36 58,-68 95,-94 36,-24 76,-44 121,-57 43,-12 91,-19 143,-19 52,0 100,7 143,19 45,13 86,33 121,58 37,25 68,57 95,93 27,38 48,80 64,127 7,21 13,43 18,66 5,23 8,46 10,71 3,24 4,49 3,74 0,25 -2,51 -5,77 -2,25 -6,50 -11,75 -5,25 -11,51 -18,77 -7,25 -16,50 -25,76 -9,25 -19,50 -31,74 -11,25 -23,50 -37,75 -13,24 -27,48 -42,72 -14,20 -28,41 -43,62 -12,16 -25,31 -37,47 26,16 53,30 81,43 32,15 66,28 101,39 37,10 75,19 114,24 38,6 78,9 119,9 20,0 39,-1 58,-2 19,-2 38,-4 57,-6 18,-3 37,-6 55,-10 19,-4 37,-8 54,-13l9 -4c20,-6 38,-12 56,-19 18,-7 37,-15 55,-23 17,-8 35,-18 52,-27 17,-10 34,-20 50,-31l151 226c-22,15 -45,29 -68,42 -23,13 -46,25 -70,37 -24,11 -48,21 -73,31 -24,9 -49,18 -74,25l-11 3c-25,7 -49,14 -74,19 -24,5 -49,10 -75,13 -25,4 -50,7 -76,9 -25,2 -51,2 -76,2 -59,0 -117,-4 -173,-13 -57,-9 -112,-22 -164,-39 -53,-17 -104,-39 -151,-63 -47,-24 -91,-51 -132,-81 -84,61 -176,110 -273,143 -95,34 -239,53 -337,53 -767,4 -560,-725 -809,-1103 -63,-94 -161,-156 -331,-156 -168,0 -267,62 -330,157 -228,339 -27,1101 -761,1101 -84,0 -234,-17 -315,-52 -78,-34 -152,-85 -219,-152 -65,-64 -117,-142 -152,-228 -18,-42 -31,-86 -40,-131 -9,-44 -13,-90 -13,-137l0 -1095 272 0zm3192 1042c9,19 18,37 28,56 10,18 21,36 32,54 10,15 21,31 32,46 8,10 16,20 24,31 8,-11 16,-21 24,-31 11,-16 22,-31 32,-46 11,-18 22,-36 32,-54 10,-18 20,-37 28,-56 9,-19 16,-38 23,-56 7,-19 13,-37 18,-56 6,-18 10,-36 14,-55 3,-18 6,-36 8,-53 2,-17 3,-33 3,-48 0,-15 0,-31 -1,-46 -2,-14 -3,-28 -6,-41 -3,-13 -6,-25 -10,-37 -6,-18 -14,-34 -25,-48 -9,-13 -21,-25 -35,-35 -14,-9 -29,-16 -47,-21 -17,-4 -36,-7 -58,-7 -21,0 -41,3 -58,7 -18,5 -33,12 -47,21 -14,10 -25,22 -35,35 -11,14 -19,30 -25,48 -4,12 -7,24 -10,37 -2,13 -4,27 -6,41 -1,15 -1,31 -1,46 0,15 1,31 3,48 2,17 5,35 8,53 4,19 9,37 14,55 5,19 11,37 18,56 7,18 14,37 23,56z"/>
   <path class="fil1" d="M0 687l4931 0c296,0 538,-239 538,-538l374 0c0,446 -463,811 -912,811l-3647 0 -223 0 -272 0 -271 0 -518 0 0 -273z"/>
  </g>
 </g>
</svg>
